Coordinates
version=1
nRows=11
nColumns=63
inDegrees=yes

Units are S.I. units (second, meters, Newtons, ...)
If the header above contains a line with 'inDegrees', this indicates whether rotational values are in degrees (yes) or radians (no).

endheader
time	pelvis_tilt	pelvis_list	pelvis_rotation	pelvis_tx	pelvis_ty	pelvis_tz	hip_flexion_r	hip_adduction_r	hip_rotation_r	knee_angle_r	knee_angle_r_beta	ankle_angle_r	subtalar_angle_r	mtp_angle_r	hip_flexion_l	hip_adduction_l	hip_rotation_l	knee_angle_l	knee_angle_l_beta	ankle_angle_l	subtalar_angle_l	mtp_angle_l	L5_S1_Flex_Ext	L5_S1_Lat_Bending	L5_S1_axial_rotation	L4_L5_Flex_Ext	L4_L5_Lat_Bending	L4_L5_axial_rotation	L3_L4_Flex_Ext	L3_L4_Lat_Bending	L3_L4_axial_rotation	L2_L3_Flex_Ext	L2_L3_Lat_Bending	L2_L3_axial_rotation	L1_L2_Flex_Ext	L1_L2_Lat_Bending	L1_L2_axial_rotation	L1_T12_Flex_Ext	L1_T12_Lat_Bending	L1_T12_axial_rotation	Abs_r3	Abs_r2	Abs_r1	Abs_t1	Abs_t2	neck_flexion	neck_bending	neck_rotation	arm_flex_r	arm_add_r	arm_rot_r	elbow_flex_r	pro_sup_r	wrist_flex_r	wrist_dev_r	arm_flex_l	arm_add_l	arm_rot_l	elbow_flex_l	pro_sup_l	wrist_flex_l	wrist_dev_l
1.909091	-2.564035	1.894896	75.850228	0.228026	1.031773	0.445489	-2.708860	-3.540521	24.487074	2.885191	0.050356	30.746613	-9.556393	0.000000	-6.855698	2.031751	-8.323177	1.255473	0.021912	27.849679	-5.856245	0.000000	-0.165644	-0.411791	1.815974	-0.307618	-0.547682	1.929473	-0.272137	-1.001229	1.929473	-0.189315	-1.001229	1.588978	-0.153817	-0.839724	1.475479	-0.094649	-0.637864	1.361981	-1.183181	-4.658264	10.099904	0.000000	0.000000	-5.469015	0.994814	10.465006	-13.434922	-16.926122	16.544824	104.745031	83.165580	6.828811	-2.675792	-22.534368	-27.365947	6.001078	107.762315	84.619357	-6.722795	-10.734145
1.927273	-2.629480	1.938170	75.948053	0.228333	1.031978	0.445725	-2.875940	-3.628598	24.731261	2.670714	0.046613	30.549003	-9.938138	0.000000	-6.815360	2.053760	-8.981532	1.399903	0.024433	27.827592	-5.170001	0.000000	-0.171685	-0.429976	1.722535	-0.318837	-0.571868	1.830193	-0.282062	-1.045443	1.830193	-0.196219	-1.045443	1.507218	-0.159427	-0.876806	1.399560	-0.098101	-0.666032	1.291901	-1.226331	-4.863970	9.580223	0.000000	0.000000	-6.270178	0.760413	10.921894	-11.883368	-16.708658	18.091284	104.181873	80.510458	6.373387	-0.042998	-22.345742	-26.564551	5.526927	107.491242	84.677315	-6.770093	-10.127429
1.945455	-2.703625	1.958160	76.075961	0.228625	1.032115	0.446030	-3.012693	-3.710600	24.911711	2.472060	0.043146	30.354939	-10.297478	0.000000	-6.732422	2.069301	-9.727182	1.595934	0.027854	27.790250	-4.443559	0.000000	-0.177870	-0.450093	1.625800	-0.330322	-0.598623	1.727413	-0.292222	-1.094355	1.727413	-0.203287	-1.094355	1.422575	-0.165170	-0.917829	1.320963	-0.101635	-0.697194	1.219350	-1.270505	-5.091539	9.042212	0.000000	0.000000	-6.947504	0.683728	11.386144	-10.303077	-16.530152	19.702357	103.615851	77.393737	5.846397	2.868749	-22.159216	-25.773554	5.073145	107.299860	84.770667	-6.811150	-9.434636
1.963636	-2.778578	1.959482	76.222566	0.228910	1.032207	0.446426	-3.111024	-3.778030	24.887254	2.310439	0.040325	30.208130	-10.441816	0.000000	-6.610760	2.070769	-10.571243	1.845301	0.032207	27.735345	-3.676141	0.000000	-0.184291	-0.470947	1.536596	-0.342247	-0.626359	1.632633	-0.302772	-1.145059	1.632633	-0.210626	-1.145059	1.344521	-0.171133	-0.960354	1.248484	-0.105304	-0.729496	1.152447	-1.316374	-5.327442	8.546084	0.000000	0.000000	-7.497592	0.737465	11.785513	-8.781120	-16.352592	21.227313	103.124662	73.971030	5.387691	5.998778	-21.919491	-25.029177	4.691384	107.200871	84.808070	-6.743209	-8.664412
1.981818	-2.859259	1.942186	76.379228	0.229165	1.032262	0.446890	-3.174252	-3.843477	24.597923	2.169025	0.037857	30.115418	-10.271129	0.000000	-6.451567	2.064903	-11.498147	2.139780	0.037346	27.684422	-2.839264	0.000000	-0.189422	-0.492262	1.461116	-0.351776	-0.654708	1.552435	-0.311202	-1.196885	1.552435	-0.216491	-1.196885	1.278476	-0.175898	-1.003820	1.187156	-0.108236	-0.762513	1.095837	-1.353026	-5.568561	8.126287	0.000000	0.000000	-7.913334	0.889543	12.086789	-7.400719	-16.179494	22.605839	102.795757	70.357340	4.874672	9.181749	-21.614877	-24.350593	4.406891	107.199291	84.955126	-6.670213	-7.926265
2.000000	-2.941408	1.918627	76.560194	0.229406	1.032279	0.447392	-3.212496	-3.896286	24.182256	2.068344	0.036099	30.056806	-10.002990	0.000000	-6.277729	2.051162	-12.398366	2.453027	0.042813	27.633588	-1.997513	0.000000	-0.194277	-0.513681	1.389863	-0.360792	-0.683196	1.476730	-0.319178	-1.248964	1.476730	-0.222039	-1.248964	1.216130	-0.180406	-1.047498	1.129264	-0.111010	-0.795692	1.042398	-1.387703	-5.810860	7.730003	0.000000	0.000000	-8.188027	1.141297	12.344072	-6.170862	-16.011883	23.829945	102.645638	66.677590	4.446720	12.320107	-21.317003	-23.738845	4.142823	107.358995	85.002248	-6.564371	-7.164209
2.018182	-3.027679	1.889071	76.742530	0.229610	1.032266	0.447909	-3.236113	-3.949302	23.650612	1.976611	0.034498	30.009048	-9.618592	0.000000	-6.096568	2.039868	-13.253213	2.769660	0.048340	27.599453	-1.135146	0.000000	-0.197833	-0.534230	1.335498	-0.367396	-0.710526	1.418967	-0.325021	-1.298927	1.418967	-0.226104	-1.298927	1.168561	-0.183708	-1.089402	1.085092	-0.113042	-0.827523	1.001624	-1.413104	-6.043320	7.427640	0.000000	0.000000	-8.319364	1.417023	12.469100	-5.169470	-15.850320	24.800941	102.694116	63.101710	4.184150	15.174938	-20.988172	-23.220493	3.970039	107.622019	85.115687	-6.502034	-6.577227
2.036364	-3.095405	1.860910	76.903251	0.229781	1.032229	0.448457	-3.242600	-3.979878	23.051412	1.919090	0.033494	29.982820	-9.147254	0.000000	-5.927695	2.014878	-14.018058	3.070155	0.053584	27.594795	-0.283563	0.000000	-0.201279	-0.550527	1.293175	-0.373796	-0.732201	1.373999	-0.330682	-1.338551	1.373999	-0.230042	-1.338551	1.131528	-0.186908	-1.122634	1.050705	-0.115011	-0.852766	0.969881	-1.437718	-6.227670	7.192253	0.000000	0.000000	-8.330932	1.690013	12.531945	-4.344986	-15.739362	25.573139	102.901462	59.775443	4.141507	17.617206	-20.683015	-22.759158	3.833083	107.991998	85.207158	-6.503351	-6.143841
2.054545	-3.138550	1.826945	77.034782	0.229907	1.032159	0.449048	-3.218303	-3.979820	22.424098	1.907715	0.033296	29.980976	-8.624650	0.000000	-5.768454	1.972710	-14.621498	3.336945	0.058241	27.635521	0.493034	0.000000	-0.203316	-0.561590	1.263841	-0.377578	-0.746915	1.342831	-0.334028	-1.365451	1.342831	-0.232370	-1.365451	1.105861	-0.188799	-1.145195	1.026871	-0.116175	-0.869904	0.947881	-1.452267	-6.352824	7.029103	0.000000	0.000000	-8.249562	1.956784	12.518477	-3.688698	-15.703630	26.170204	103.230496	56.726832	4.299987	19.602162	-20.386005	-22.351408	3.749084	108.434764	85.117150	-6.533950	-5.778044
2.072727	-3.154289	1.804390	77.145468	0.229983	1.032096	0.449680	-3.189956	-3.951999	21.760334	1.924148	0.033583	30.005345	-8.053158	0.000000	-5.637344	1.915271	-15.062034	3.558100	0.062101	27.714384	1.176876	0.000000	-0.206849	-0.567572	1.236014	-0.384139	-0.754871	1.313265	-0.339832	-1.379995	1.313265	-0.236408	-1.379995	1.081512	-0.192080	-1.157393	1.004261	-0.118194	-0.879169	0.927010	-1.477502	-6.420490	6.874338	0.000000	0.000000	-8.142489	2.202706	12.477344	-3.143360	-15.743632	26.647940	103.579165	54.100835	4.744078	21.174802	-20.138951	-21.967000	3.657997	108.911242	84.974830	-6.573865	-5.491148
2.090909	-3.137471	1.790341	77.227756	0.229981	1.032032	0.450378	-3.152674	-3.893551	21.135246	1.965658	0.034307	30.055112	-7.497303	0.000000	-5.535833	1.840791	-15.283588	3.714957	0.064838	27.824036	1.688886	0.000000	-0.212337	-0.567756	1.215927	-0.394332	-0.755115	1.291922	-0.348849	-1.380442	1.291922	-0.242680	-1.380442	1.063936	-0.197176	-1.157768	0.987941	-0.121330	-0.879454	0.911945	-1.516704	-6.422569	6.762621	0.000000	0.000000	-8.024777	2.439109	12.376482	-2.694689	-15.875946	27.039397	103.939106	51.833976	5.252880	22.426293	-19.890971	-21.621055	3.638607	109.391741	84.551239	-6.677774	-5.150645
